<svg
  xmlns="http://www.w3.org/2000/svg"
  width="600"
  height="600"
  viewBox="0 0 600 600"
  role="img"
  aria-labelledby="gwas-spatial-title gwas-spatial-description"
>
  <title id="gwas-spatial-title">Genetic signals meet spatial gene expression</title>
  <desc id="gwas-spatial-description">
    A schematic DNA strand connects to a field of spatial expression spots, with one tissue region highlighted in muted blue. This is an illustration,
    not observed research data.
  </desc>
  <defs>
    <pattern id="gwas-spatial-spots" width="27" height="24" patternUnits="userSpaceOnUse">
      <circle cx="6" cy="6" r="4.1" fill="#353b40" opacity=".65" />
      <circle cx="19.5" cy="18" r="3.7" fill="#353b40" opacity=".42" />
    </pattern>
    <pattern id="gwas-spatial-highlight-spots" width="27" height="24" patternUnits="userSpaceOnUse">
      <circle cx="6" cy="6" r="4.9" fill="#57768d" />
      <circle cx="19.5" cy="18" r="4.6" fill="#57768d" />
    </pattern>
    <clipPath id="gwas-spatial-tissue-clip">
      <path
        d="M294 139C342 113 407 137 431 162C464 158 490 185 496 219C533 237 539 281 519 307C537 347 514 391 481 407C469 451 420 469 384 448C347 474 296 455 284 427C250 430 221 401 223 363C195 341 195 298 218 269C204 232 224 194 254 184C254 164 271 147 294 139Z"
      />
    </clipPath>
    <clipPath id="gwas-spatial-region-clip">
      <path
        d="M375 193C405 185 435 205 444 236C465 252 464 282 446 297C442 322 413 333 387 321C358 328 334 306 337 280C317 255 335 217 355 212C360 201 367 196 375 193Z"
      />
    </clipPath>
    <marker id="gwas-spatial-arrow" markerWidth="7" markerHeight="7" refX="6" refY="3.5" orient="auto">
      <path d="M1 1L6 3.5L1 6" fill="none" stroke="#7e8b95" stroke-width="1.2" />
    </marker>
  </defs>
  <path fill="#faf9f6" d="M0 0H600V600H0Z" />
  <g clip-path="url(#gwas-spatial-tissue-clip)">
    <path fill="#f0f0ed" d="M190 112H546V477H190Z" />
    <path fill="url(#gwas-spatial-spots)" d="M190 112H546V477H190Z" />
    <g clip-path="url(#gwas-spatial-region-clip)">
      <path fill="#e5eaee" d="M310 175H474V345H310Z" />
      <path fill="url(#gwas-spatial-highlight-spots)" d="M310 175H474V345H310Z" />
    </g>
  </g>
  <path
    d="M294 139C342 113 407 137 431 162C464 158 490 185 496 219C533 237 539 281 519 307C537 347 514 391 481 407C469 451 420 469 384 448C347 474 296 455 284 427C250 430 221 401 223 363C195 341 195 298 218 269C204 232 224 194 254 184C254 164 271 147 294 139Z"
    fill="none"
    stroke="#afb5b8"
    stroke-width="1.3"
  />
  <path
    d="M375 193C405 185 435 205 444 236C465 252 464 282 446 297C442 322 413 333 387 321C358 328 334 306 337 280C317 255 335 217 355 212C360 201 367 196 375 193Z"
    fill="none"
    stroke="#57768d"
    stroke-width="1.2"
    stroke-dasharray="4 6"
  />
  <g fill="none" stroke="#30363b" stroke-linecap="round">
    <path d="M101 149C158 187 158 211 101 249C44 287 44 311 101 349C158 387 158 411 101 449" stroke-width="4" />
    <path d="M125 149C68 187 68 211 125 249C182 287 182 311 125 349C68 387 68 411 125 449" stroke-width="4" />
    <path
      d="M107 164L119 164M119 182L107 182M132 199L94 199M130 216L96 216M119 233L107 233M107 265L119 265M94 282L132 282M89 299L137 299M95 316L131 316M107 333L119 333M119 366L107 366M131 383L95 383M132 400L94 400M119 418L107 418M107 435L119 435"
      stroke-width="2"
      opacity=".45"
    />
  </g>
  <g fill="#57768d" stroke="#faf9f6" stroke-width="3">
    <circle cx="137" cy="299" r="7" />
    <circle cx="130" cy="216" r="7" />
    <circle cx="130" cy="383" r="7" />
  </g>
  <g fill="none" stroke="#7e8b95" stroke-width="1.5" marker-end="url(#gwas-spatial-arrow)">
    <path d="M144 217C206 184 269 157 339 215" />
    <path d="M151 299C217 303 267 277 320 265" />
    <path d="M143 383C205 423 260 419 323 323" />
  </g>
  <path d="M215 498H502" fill="none" stroke="#c9cdcf" stroke-width="1.2" />
  <g fill="#353b40" opacity=".65">
    <circle cx="217" cy="498" r="3" />
    <circle cx="231" cy="498" r="3" />
    <circle cx="245" cy="498" r="3" />
    <circle cx="259" cy="498" r="3" />
  </g>
  <g fill="#57768d">
    <circle cx="463" cy="498" r="3" />
    <circle cx="477" cy="498" r="3" />
    <circle cx="491" cy="498" r="3" />
  </g>
</svg>
